<?xml version="1.0" encoding="UTF-8" standalone="no"?>
<!DOCTYPE svg PUBLIC "-//W3C//DTD SVG 1.1//EN"
 "http://www.w3.org/Graphics/SVG/1.1/DTD/svg11.dtd">
<!-- Generated by graphviz version 2.38.0 (20140413.2041)
 -->
<!-- Title: %3 Pages: 1 -->
<svg width="385pt" height="376pt"
 viewBox="0.00 0.00 385.00 376.00" xmlns="http://www.w3.org/2000/svg" xmlns:xlink="http://www.w3.org/1999/xlink">
<g id="graph0" class="graph" transform="scale(1 1) rotate(0) translate(36 340)">
<title>%3</title>
<polygon fill="white" stroke="none" points="-36,36 -36,-340 349,-340 349,36 -36,36"/>
<!-- Foo -->
<g id="node1" class="node"><title>Foo</title>
<polygon fill="none" stroke="black" points="80,-304 0,-304 0,-149 80,-149 80,-304"/>
<polygon fill="none" stroke="black" points="8,-278.5 8,-299.5 72,-299.5 72,-278.5 8,-278.5"/>
<text text-anchor="start" x="11" y="-286.3" font-family="Times New Roman,serif" font-style="italic" font-size="14.00">Input Foo</text>
<polygon fill="none" stroke="black" points="8,-257.5 8,-278.5 72,-278.5 72,-257.5 8,-257.5"/>
<text text-anchor="start" x="29.5" y="-264.3" font-family="Times New Roman,serif" font-size="14.00">one</text>
<polygon fill="none" stroke="black" points="8,-236.5 8,-257.5 72,-257.5 72,-236.5 8,-236.5"/>
<text text-anchor="start" x="29" y="-243.3" font-family="Times New Roman,serif" font-size="14.00">two</text>
<polygon fill="none" stroke="black" points="8,-215.5 8,-236.5 72,-236.5 72,-215.5 8,-215.5"/>
<text text-anchor="start" x="26" y="-222.3" font-family="Times New Roman,serif" font-size="14.00">three</text>
<polygon fill="none" stroke="black" points="8,-194.5 8,-215.5 72,-215.5 72,-194.5 8,-194.5"/>
<text text-anchor="start" x="28" y="-201.3" font-family="Times New Roman,serif" font-size="14.00">four</text>
<polygon fill="none" stroke="black" points="8,-173.5 8,-194.5 72,-194.5 72,-173.5 8,-173.5"/>
<text text-anchor="start" x="29.5" y="-180.3" font-family="Times New Roman,serif" font-size="14.00">five</text>
<polygon fill="none" stroke="black" points="8,-152.5 8,-173.5 72,-173.5 72,-152.5 8,-152.5"/>
<text text-anchor="start" x="32" y="-159.3" font-family="Times New Roman,serif" font-size="14.00">six</text>
</g>
<!-- Baz -->
<g id="node3" class="node"><title>Baz</title>
<polygon fill="none" stroke="black" points="313,-219 224,-219 224,-64 313,-64 313,-219"/>
<polygon fill="none" stroke="black" points="232.5,-193.5 232.5,-214.5 305.5,-214.5 305.5,-193.5 232.5,-193.5"/>
<text text-anchor="start" x="235.5" y="-201.3" font-family="Times New Roman,serif" font-style="italic" font-size="14.00">Output Baz</text>
<polygon fill="none" stroke="black" points="232.5,-172.5 232.5,-193.5 305.5,-193.5 305.5,-172.5 232.5,-172.5"/>
<text text-anchor="start" x="254" y="-179.3" font-family="Times New Roman,serif" font-size="14.00">alpha</text>
<polygon fill="none" stroke="black" points="232.5,-151.5 232.5,-172.5 305.5,-172.5 305.5,-151.5 232.5,-151.5"/>
<text text-anchor="start" x="252.5" y="-158.3" font-family="Times New Roman,serif" font-size="14.00">bravo</text>
<polygon fill="none" stroke="black" points="232.5,-130.5 232.5,-151.5 305.5,-151.5 305.5,-130.5 232.5,-130.5"/>
<text text-anchor="start" x="250.5" y="-137.3" font-family="Times New Roman,serif" font-size="14.00">charlie</text>
<polygon fill="none" stroke="black" points="232.5,-109.5 232.5,-130.5 305.5,-130.5 305.5,-109.5 232.5,-109.5"/>
<text text-anchor="start" x="255.5" y="-116.3" font-family="Times New Roman,serif" font-size="14.00">delta</text>
<polygon fill="none" stroke="black" points="232.5,-88.5 232.5,-109.5 305.5,-109.5 305.5,-88.5 232.5,-88.5"/>
<text text-anchor="start" x="255" y="-95.3" font-family="Times New Roman,serif" font-size="14.00">echo</text>
<polygon fill="none" stroke="black" points="232.5,-67.5 232.5,-88.5 305.5,-88.5 305.5,-67.5 232.5,-67.5"/>
<text text-anchor="start" x="249.5" y="-74.3" font-family="Times New Roman,serif" font-size="14.00">foxtrot</text>
</g>
<!-- Foo&#45;&gt;Baz -->
<g id="edge1" class="edge"><title>Foo:2&#45;&gt;Baz:a</title>
<path fill="none" stroke="black" d="M73,-247.5C145.409,-247.5 154.762,-189.359 221.26,-183.909"/>
<polygon fill="black" stroke="black" points="221.648,-187.396 231.5,-183.5 221.368,-180.402 221.648,-187.396"/>
</g>
<!-- Foo&#45;&gt;Baz -->
<g id="edge2" class="edge"><title>Foo:3&#45;&gt;Baz:e</title>
<path fill="none" stroke="black" d="M73,-225.5C159.742,-225.5 142.782,-108.228 221.422,-99.0662"/>
<polygon fill="black" stroke="black" points="221.712,-102.556 231.5,-98.5 221.319,-95.5666 221.712,-102.556"/>
</g>
<!-- Foo&#45;&gt;Baz -->
<g id="edge3" class="edge"><title>Foo:6&#45;&gt;Baz:b</title>
<path fill="none" stroke="black" d="M73,-162.5C139.867,-162.5 159.131,-162.5 221.163,-162.5"/>
<polygon fill="black" stroke="black" points="221.5,-166 231.5,-162.5 221.5,-159 221.5,-166"/>
</g>
<!-- Bar -->
<g id="node2" class="node"><title>Bar</title>
<polygon fill="none" stroke="black" points="79.5,-113 0.5,-113 0.5,-0 79.5,-0 79.5,-113"/>
<polygon fill="none" stroke="black" points="9,-87.5 9,-108.5 72,-108.5 72,-87.5 9,-87.5"/>
<text text-anchor="start" x="12" y="-95.3" font-family="Times New Roman,serif" font-style="italic" font-size="14.00">Input Bar</text>
<polygon fill="none" stroke="black" points="9,-66.5 9,-87.5 72,-87.5 72,-66.5 9,-66.5"/>
<text text-anchor="start" x="24.5" y="-73.3" font-family="Times New Roman,serif" font-size="14.00">seven</text>
<polygon fill="none" stroke="black" points="9,-45.5 9,-66.5 72,-66.5 72,-45.5 9,-45.5"/>
<text text-anchor="start" x="27" y="-52.3" font-family="Times New Roman,serif" font-size="14.00">eight</text>
<polygon fill="none" stroke="black" points="9,-24.5 9,-45.5 72,-45.5 72,-24.5 9,-24.5"/>
<text text-anchor="start" x="29" y="-31.3" font-family="Times New Roman,serif" font-size="14.00">nine</text>
<polygon fill="none" stroke="black" points="9,-3.5 9,-24.5 72,-24.5 72,-3.5 9,-3.5"/>
<text text-anchor="start" x="32" y="-10.3" font-family="Times New Roman,serif" font-size="14.00">ten</text>
</g>
<!-- Bar&#45;&gt;Baz -->
<g id="edge4" class="edge"><title>Bar:7&#45;&gt;Baz:d</title>
<path fill="none" stroke="black" d="M73,-77.5C142.317,-77.5 157.236,-115.499 221.241,-119.209"/>
<polygon fill="black" stroke="black" points="221.405,-122.715 231.5,-119.5 221.603,-115.718 221.405,-122.715"/>
</g>
<!-- Bar&#45;&gt;Baz -->
<g id="edge5" class="edge"><title>Bar:9&#45;&gt;Baz:f</title>
<path fill="none" stroke="black" d="M73,-34.5C142.427,-34.5 157.143,-73.4033 221.226,-77.2025"/>
<polygon fill="black" stroke="black" points="221.403,-80.7089 231.5,-77.5 221.606,-73.7119 221.403,-80.7089"/>
</g>
</g>
</svg>
