<svg xmlns="http://www.w3.org/2000/svg" width="110" height="92.081" viewBox="0 0 29.104 24.363" version="1.1" id="svg4151"><defs id="defs4145"><clipPath clipPathUnits="userSpaceOnUse" id="clipPath18"><path d="M0 1080h1920V0H0z" id="path16"/></clipPath><clipPath clipPathUnits="userSpaceOnUse" id="clipPath66"><path d="M0 1080h1920V0H0z" id="path64"/></clipPath><clipPath clipPathUnits="userSpaceOnUse" id="clipPath18-7"><path d="M0 1080h1920V0H0z" id="path16-5"/></clipPath><clipPath clipPathUnits="userSpaceOnUse" id="clipPath66-6"><path d="M0 1080h1920V0H0z" id="path64-2"/></clipPath></defs><g id="layer1" transform="translate(-47.436 -56.52)"><g id="g5441"><g id="g60" transform="matrix(.1063 0 0 -.1063 -58.609 142.5)"><g clip-path="url(#clipPath66-6)" id="g62"><g transform="translate(1237.57 699.175)" id="g68"><path id="path70" d="M0 0c6.577 14.83-42.597 24.321-43.577 37.412-1.111 14.458 24.263 11.785 17.82 26.149C1.239 45.247-13.723 41.353-19.5 37.285-33.305 27.553 17.779 21.588 0 0" fill="#b50043" fill-opacity="1" fill-rule="nonzero" stroke="none"/></g><g transform="translate(1230.446 649.413)" id="g72"><path id="path74" d="M0 0c0-3.339-4.258-3.339-6.448-3.339-4.263 0-9.738 3.339-10.348 7.797h-4.882l.018.108h-8.803c-.689-4.476-5.01-7.455-7.677-7.455-6.374 0-7.572 5.301-7.572 10.6h25.031c0 .651-.024 1.29-.065 1.921C-14.513 3.696 0 4.986 0 0m-45.573 15.786c0 3.892 2.052 6.547 5.767 6.547 3.66 0 5.694-2.655 5.694-6.547v-2.008h-11.461zm-38.241 5.39h-7.29V35.38h5.478c6.982 0 10.229-1.311 10.229-6.899 0-6.085-2.806-7.305-8.417-7.305m-129.182-6.781l5.389 16.332h.148l5.463-16.332zM35.077 8.877V2.962c0-3.521-.759-5.557-3.652-5.557-1.746 0-2.581 1.309-2.581 2.9v20.871h9.358v6.069h-9.358v14.113h-7.506c-.607-6.239-2.548-13.946-9.948-14.106v.219H6.14l-.906-2.287c-3.488 1.991-7.74 3.185-11.781 3.185-6.811 0-15.096-2.327-16.707-9.396-3.049 5.753-8.737 9.396-16.702 9.396-10.849 0-19.204-7.114-19.204-18.887 0-2.01.188-3.883.558-5.615V2.704c0-2.323-.544-4.646-2.519-4.646-2.066 0-2.573 1.095-2.573 2.52v7.975c0 6.237-3.183 8.054-8.885 9.657v.142c6.594.914 11.458 4.16 11.458 11.42 0 8.113-6.291 12.273-16.93 12.273h-34.981V35.38h4.695c1.901 0 2.964-1.139 2.964-3.047v-30.9c0-1.899-1.063-3.016-2.964-3.016h-1.227v.049h-2.586c-2.201 0-2.74 1.131-2.74 3.266v15.497c0 7.13-3.722 11.14-11.538 11.14-5.025 0-9.331-2.551-11.999-6.744-1.752 4.569-5.546 6.744-10.309 6.744-5.638 0-9.652-2.483-12.447-7.193h-.164v6.069h-17.627v-6.069h3.047c2.203 0 2.719-1.143 2.719-3.272V1.733c0-2.136-.516-3.266-2.719-3.266h-3.279v-.047c-2.549.038-3.607 1.107-5.104 5.664l-12.675 37.961h-15.191l-12.668-37.961c-1.524-4.641-2.583-5.667-5.243-5.667h-2.578v-6.694h22.315v6.694h-2.2c-2.044 0-4.702.215-4.702 1.416 0 1.076.297 2.2 1.124 4.84l.929 3.038h15.47l1.622-5.453c.295-1.137.362-1.951.362-2.724 0-.818-1.887-1.117-4.176-1.117h-2.266v-6.694h47.539v6.744h-1.215c-2.2 0-2.721.686-2.721 1.745v14.496c0 3.566 1.35 6.853 5.456 6.853 4.333-.002 4.793-2.747 4.793-6.535V1.732c0-2.345-.537-3.266-2.74-3.266l-1.081.001v-6.744l20.149-.003v6.746h-1.001c-2.352 0-2.729.304-2.729 1.743v15.678c0 3.317 1.345 5.672 5.461 5.672 3.498 0 4.797-3.886 4.797-6.533V1.732c0-2.135-.54-3.266-2.762-3.266h-1.141V-8.28h47.938v6.697h-4.693c-1.908 0-2.967 1.117-2.967 3.016v13.056h6.226c6.159 0 6.906-1.05 6.906-5.612V2.655c0-8.89 4.852-12.472 12.075-12.472 6.222 0 9.534 2.288 11.121 5.845 3.171-3.5 8.081-5.446 14.82-5.446 6.733 0 13.92 3.29 16.95 9.5v-8.679h5.695l1.125 2.596c3.968-2.714 8.667-3.417 13.365-3.417 7.833 0 16.237 3.183 16.237 12.38 0 14.795-23.528 9.873-23.528 16.411 0 2.55 4.111 2.96 5.854 2.96 2.205 0 4.258-.494 6.004-1.527 1.746-1.067 3.108-2.534 3.868-4.712h5.776v5.082h4.861V2.107c0-7.76 4.323-11.525 12.14-11.525 9.114 0 12.75 4.095 12.75 11.525v6.77z" fill="#000" fill-opacity="1" fill-rule="nonzero" stroke="none"/></g><g transform="translate(1166.154 809.15)" id="g76"><path id="path78" d="M0 0c27.469-59.014-14.722-55.766 9.111-107.917C-.56-52.615 66.993-47 0 0" fill="#fc9200" fill-opacity="1" fill-rule="nonzero" stroke="none"/></g></g></g><g id="text82" style="-inkscape-font-specification:Verdana-Bold" aria-label="FRANCHISES" font-variant="normal" font-weight="700" font-stretch="normal" font-size="3.635" font-family="Verdana" writing-mode="lr-tb" fill="#000" fill-opacity="1" fill-rule="nonzero" stroke="none" stroke-width=".106"><path id="path5401" d="M51.025 77.97H49.81v.49h1.128v.512H49.81v1.129h-.678v-2.643h1.894z"/><path id="path5403" d="M52.976 78.267q0-.1-.04-.17-.041-.071-.14-.112-.07-.028-.162-.034-.092-.007-.215-.007h-.247v.712h.21q.163 0 .273-.016.11-.016.185-.073.07-.055.103-.12.033-.068.033-.18zm1.064 1.834h-.833l-.72-.97h-.315v.97h-.678v-2.643h1.143q.235 0 .403.027.169.026.316.115.15.089.236.23.09.14.09.354 0 .293-.138.477-.134.185-.386.307z"/><path id="path5405" d="M56.78 80.1h-.705l-.183-.533h-.98l-.183.534h-.687l.977-2.643h.784zm-1.053-1.018l-.325-.948-.325.948z"/><path id="path5407" d="M59.561 80.1h-.656l-1.122-1.813V80.1h-.625v-2.643h.815l.964 1.514v-1.514h.624z"/><path id="path5409" d="M61.432 80.152q-.295 0-.545-.087-.249-.087-.428-.259-.18-.172-.279-.43-.097-.257-.097-.594 0-.314.094-.57.094-.255.273-.438.172-.176.426-.272.256-.096.558-.096.166 0 .3.02.134.018.248.048.119.034.215.076.097.041.17.077v.64h-.078q-.05-.042-.126-.1-.074-.06-.17-.116-.098-.057-.212-.096-.113-.04-.243-.04-.144 0-.273.047-.13.044-.24.15-.104.1-.17.267-.064.167-.064.405 0 .248.07.415.07.167.177.263.108.098.241.14.133.041.263.041.124 0 .245-.037.122-.038.225-.101.087-.052.162-.11.074-.06.122-.102h.071v.632l-.19.084q-.09.039-.19.067-.13.037-.243.057-.113.02-.312.02z"/><path id="path5411" d="M65.239 80.1h-.682v-1.163h-1.006V80.1h-.682v-2.643h.682v.967h1.006v-.967h.682z"/><path id="path5413" d="M67.34 80.1h-1.547v-.468h.433v-1.705h-.433v-.47h1.548v.47h-.433v1.705h.433z"/><path id="path5415" d="M70.013 79.27q0 .39-.332.636-.33.243-.899.243-.328 0-.573-.057-.243-.059-.456-.147v-.634h.074q.212.169.473.26.262.09.504.09.062 0 .163-.01.101-.012.165-.036.078-.032.128-.08.051-.048.051-.142 0-.087-.074-.15-.073-.063-.215-.097-.149-.036-.316-.066-.165-.032-.31-.08-.334-.108-.482-.292-.145-.187-.145-.462 0-.37.33-.602.332-.234.852-.234.261 0 .515.051.255.05.442.126v.61h-.073q-.16-.128-.392-.214-.231-.087-.472-.087-.086 0-.17.013-.084.01-.162.042-.07.027-.12.082-.049.053-.049.122 0 .105.08.162.08.055.302.101l.278.059q.135.028.29.078.303.1.447.271.146.17.146.444z"/><path id="path5417" d="M72.39 80.1h-1.912v-2.642h1.911v.511h-1.233v.456H72.3v.512h-1.145v.653h1.233z"/><path id="path5419" d="M75.077 79.27q0 .39-.332.636-.33.243-.899.243-.328 0-.573-.057-.243-.059-.456-.147v-.634h.074q.212.169.473.26.262.09.504.09.062 0 .163-.01.101-.012.165-.036.078-.032.128-.08.051-.048.051-.142 0-.087-.074-.15-.073-.063-.215-.097-.15-.036-.316-.066-.165-.032-.31-.08-.334-.108-.482-.292-.145-.187-.145-.462 0-.37.33-.602.332-.234.852-.234.261 0 .515.051.255.05.442.126v.61h-.073q-.16-.128-.392-.214-.231-.087-.472-.087-.086 0-.17.013-.084.01-.162.042-.07.027-.12.082-.049.053-.049.122 0 .105.08.162.08.055.302.101l.278.059q.135.028.29.078.303.1.447.271.146.17.146.444z"/></g></g></g></svg>